<svg width="48" height="51" viewBox="0 0 48 51" fill="none" xmlns="http://www.w3.org/2000/svg">
<path d="M35.9799 50.21H36.2299V49.96V44.45H41.7399H41.9899V44.2V38.69H47.4999H47.7499V38.44V12.52V12.27H47.4999H41.9899V6.76V6.51H41.7399H36.2299V1V0.75H35.9799H12.9399H12.6899V1V6.51H7.17992H6.92992V6.76V12.27H1.41992H1.16992V12.52V38.44V38.69H1.41992H6.92992V44.2V44.45H7.17992H12.6899V49.96V50.21H12.9399H35.9799ZM7.42992 38.19V12.77H12.9399H13.1899V12.52V7.01H35.7299V12.52V12.77H35.9799H41.4899V38.19H35.9799H35.7299V38.44V43.95H13.1899V38.44V38.19H12.9399H7.42992Z" fill="black" stroke="black" stroke-width="0.5"/>
</svg>
